# AST/ASF file generated using VICON BodyLanguage
# -----------------------------------------------
:version 1.10
:name VICON
:units
  mass 1.0
  length 0.45
  angle deg
:documentation
   .ast/.asf automatically generated from VICON data using
   VICON BodyBuilder and BodyLanguage model FoxedUp or BRILLIANT.MOD
:root
   order TX TY TZ RX RY RZ
   axis XYZ
   position 0 0 0  
   orientation 0 0 0 
:bonedata
  begin
     id 1 
     name lhipjoint
     direction 0.635376 -0.686425 0.353719 
     length 2.47244 
     axis 0 0 0  XYZ
  end
  begin
     id 2 
     name lfemur
     direction 0.34202 -0.939693 0  
     length 7.25268  
     axis 0 0 20  XYZ
    dof rx ry rz
    limits (-160.0 20.0)
           (-70.0 70.0)
           (-60.0 70.0)
  end
  begin
     id 3 
     name ltibia
     direction 0.34202 -0.939693 0   
     length 7.6767   
     axis 0 0 20   XYZ
    dof rx
    limits (-10.0 170.0)
  end
  begin
     id 4 
     name lfoot
     direction 0.0803374 -0.220725 0.972022   
     length 2.22945   
     axis -90 7.62852e-016 20   XYZ
    dof rx rz
    limits (-45.0 90.0)
           (-70.0 20.0)
  end
  begin
     id 5 
     name ltoes
     direction 1.53579e-011 -4.21994e-011 1   
     length 1.11848   
     axis -90 7.62852e-016 20   XYZ
    dof rx
    limits (-90.0 20.0)
  end
  begin
     id 6 
     name rhipjoint
     direction -0.664428 -0.664335 0.342336   
     length 2.55466  
     axis 0 0 0  XYZ 
  end
  begin
     id 7 
     name rfemur
     direction -0.34202 -0.939693 0   
     length 6.83172   
     axis 0 0 -20   XYZ
    dof rx ry rz
    limits (-160.0 20.0)
           (-70.0 70.0)
           (-70.0 60.0)
  end
  begin
     id 8 
     name rtibia
     direction -0.34202 -0.939693 0   
     length 7.62692   
     axis 0 0 -20   XYZ
    dof rx
    limits (-10.0 170.0)
 end
 begin
     id 9 
     name rfoot
     direction -0.0949276 -0.260811 0.960711   
     length 2.19684  
     axis -90 -7.62852e-016 -20   XYZ
    dof rx rz
    limits (-45.0 90.0)
           (-20.0 70.0)
  end
  begin
     id 10 
     name rtoes
     direction -1.53543e-011 -4.2183e-011 1   
     length 1.09848   
     axis -90 -7.62852e-016 -20   XYZ
    dof rx
    limits (-90.0 20.0)
  end
  begin
     id 11 
     name lowerback
     direction 0.0118782 0.999815 -0.0151555   
     length 2.15772   
     axis 0 0 0   XYZ
    dof rx ry rz
    limits (-20.0 45.0)
           (-30.0 30.0)
           (-30.0 30.0)
  end
  begin
     id 12 
     name upperback
     direction 0.00130825 0.999065 0.0432113   
     length 2.14863   
     axis 0 0 0   XYZ
    dof rx ry rz
    limits (-20.0 45.0)
           (-30.0 30.0)
           (-30.0 30.0)
  end
  begin
     id 13 
     name thorax
     direction -0.00347005 0.998773 0.0494011   
     length 2.14936   
     axis 0 0 0   XYZ
    dof rx ry rz
    limits (-20.0 45.0)
           (-30.0 30.0)
           (-30.0 30.0)
  end
  begin
     id 14 
     name lowerneck
     direction -0.0262159 0.99424 0.103921   
     length 1.69373   
     axis 0 0 0   XYZ
    dof rx ry rz
    limits (-20.0 45.0)
           (-30.0 30.0)
           (-30.0 30.0)
  end
  begin
     id 15 
     name upperneck
     direction 0.0353511 0.977394 -0.20845   
     length 1.70857   
     axis 0 0 0   XYZ
    dof rx ry rz
    limits (-20.0 45.0)
           (-30.0 30.0)
           (-30.0 30.0)
  end
  begin
     id 16
     name head
     direction 0.0139214 0.996594 -0.0812836  
     length 1.72777  
     axis 0 0 0   XYZ
    dof rx ry rz
    limits (-20.0 45.0)
           (-30.0 30.0)
           (-30.0 30.0)
  end
  begin
     id 17 
     name lclavicle
     direction 0.841247 0.537205 -0.0609508  
     length 3.55371  
     axis 0 0 0   XYZ
    dof ry rz
    limits (-20.0 10.0)
           (0.0 20.0)
  end
  begin
     id 18 
     name lhumerus
     direction 1 -4.48964e-011 1.60116e-018   
     length 4.91377   
     axis -180 -30 -90   XYZ
    dof rx ry rz
    limits (-60.0 90.0)
           (-90.0 90.0)
           (-90.0 90.0)
  end
  begin
     id 19
     name lradius
     direction 1 -4.48989e-011 -8.93847e-027   
     length 3.00291   
     axis -180 -30 -90   XYZ
    dof rx
    limits (-10.0 170.0)
  end
  begin
     id 20
     name lwrist
     direction 1 -4.48932e-011 -7.31504e-027   
     length 1.50145   
     axis 5.74121e-015 90 90   XYZ
    dof ry
    limits (-180.0 0.0)
 end
  begin
     id 21 
     name lhand
     direction 1 -4.48971e-011 -1.46301e-026   
     length 0.450922   
     axis 9.33524e-015 90 90   XYZ
    dof rx rz
    limits (-90.0 90.0)
           (-45.0 45.0)
  end
  begin
     id 22 
     name lfingers
     direction 1 -4.49039e-011 -2.92602e-026   
     length 0.363545   
     axis 1.86705e-014 90 90   XYZ
    dof rx
    limits (0.0 90.0)
  end
  begin
     id 23
     name lthumb
     direction 0.707107 -6.34941e-011 0.707107   
     length 0.52198   
     axis -90 45 2.85299e-015   XYZ
    dof rx rz
    limits (-45.0 45.0)
           (-45.0 45.0)
  end
  begin
     id 24 
     name rclavicle
     direction -0.825079 0.56158 -0.0622297   
     length 3.39909  
     axis 0 0 0   XYZ 
    dof ry rz
    limits (-10.0 20.0)
           (-20.0 0.0)
  end
  begin
     id 25 
     name rhumerus
     direction -1 -4.48965e-011 1.61691e-027  
     length 4.86725   
     axis -180 30 90   XYZ
    dof rx ry rz
    limits (-90.0 60.0)
           (-90.0 90.0)
           (-90.0 90.0)
  end
  begin
     id 26 
     name rradius
     direction -1 -4.48964e-011 -2.25776e-027   
     length 3.17144   
     axis -180 30 90   XYZ
    dof rx
    limits (-10.0 170.0)
  end
  begin
     id 27 
     name rwrist
     direction -1 -4.48961e-011 -7.31504e-027   
     length 1.58572   
     axis 5.74121e-015 -90 -90   XYZ
    dof ry
    limits (-180.0 0.0)
  end
  begin
     id 28
     name rhand
     direction -1 -4.49013e-011 -1.46301e-026   
     length 0.419368   
     axis 9.33524e-015 -90 -90   XYZ
    dof rx rz
    limits (-90.0 90.0)
           (-45.0 45.0)
  end
  begin
     id 29
     name rfingers
     direction -1 -4.489e-011 -2.92602e-026   
     length 0.338105   
     axis 1.86705e-014 -90 -90   XYZ
    dof rx
    limits (0.0 90.0)
  end
  begin
     id 30
     name rthumb
     direction -0.707107 -6.35022e-011 0.707107   
     length 0.485453   
     axis -90 -45 -2.85299e-015   XYZ
    dof rx rz
    limits (-45.0 45.0)
           (-45.0 45.0)
  end
:hierarchy
  begin
    root lhipjoint rhipjoint lowerback
    lhipjoint lfemur
    lfemur ltibia
    ltibia lfoot
    lfoot ltoes
    rhipjoint rfemur
    rfemur rtibia
    rtibia rfoot
    rfoot rtoes
    lowerback upperback
    upperback thorax
    thorax lowerneck lclavicle rclavicle
    lowerneck upperneck
    upperneck head
    lclavicle lhumerus
    lhumerus lradius
    lradius lwrist
    lwrist lhand lthumb
    lhand lfingers
    rclavicle rhumerus
    rhumerus rradius
    rradius rwrist
    rwrist rhand rthumb
    rhand rfingers
  end

#!OML:ASF H:\Swim 2\Project 1\Capture day 1\Session 1\male.ASF
:FULLY-SPECIFIED
:DEGREES
770
root 0.0542935 13.7598 9.36822 55.1198 -6.95041 186.128
lowerback 47.3529 2.05484 -5.21366
upperback 7.81576 -2.64148 2.63782
thorax -12.5708 -2.48966 7.1679
lowerneck -7.97424 3.42827 -2.81171
upperneck 37.5642 2.7108 0.354669
head 14.096 -1.01092 0.557971
rclavicle 6.12257e-014 -4.73108e-014
rhumerus -647.597 -23.6189 360.293
rradius 23.3009
rwrist 389.538
rhand -17.7864 2.58429
rfingers 7.12502
rthumb 8.47652 -27.2256
lclavicle 6.12257e-014 -4.73108e-014
lhumerus -806.283 -17.3235 101.309
lradius 37.7449
lwrist -667.735
lhand -11.9255 -9.36159
lfingers 7.12502
lthumb 14.1287 20.138
rfemur 47.835 9.55418 24.8944
rtibia 6.94182
rfoot 6.81668 -9.55652
rtoes 16.5322
lfemur 34.2429 2.36015 -31.0198
ltibia 39.7901
lfoot 24.6691 -3.26986
ltoes 20.5398
771
root 0.0900753 13.7457 9.37136 55.4813 -6.77632 185.996
lowerback 46.9809 2.08652 -5.70059
upperback 7.85336 -2.81573 2.59768
thorax -12.3898 -2.55773 7.43993
lowerneck -7.92148 3.31397 -3.08587
upperneck 37.823 2.24187 1.14884
head 14.1921 -1.19279 0.856228
rclavicle 7.95139e-015 1.70955e-014
rhumerus -646.763 -24.381 359.808
rradius 22.9606
rwrist 392.422
rhand -18.416 3.25039
rfingers 7.12502
rthumb 7.86887 -26.5832
lclavicle 7.95139e-015 1.70955e-014
lhumerus -805.896 -16.8331 102.31
lradius 36.5855
lwrist -667.664
lhand -12.3883 -9.05645
lfingers 7.12502
lthumb 13.6828 20.4738
rfemur 48.0241 9.35752 25.0413
rtibia 7.22777
rfoot 8.18494 -7.27751
rtoes 14.9705
lfemur 32.4607 2.67925 -31.1071
ltibia 40.0428
lfoot 23.538 -2.33559
ltoes 20.6853
772
root 0.126981 13.7335 9.37549 55.7947 -6.58818 185.87
lowerback 46.6441 2.10285 -6.16436
upperback 7.89461 -3.00137 2.55088
thorax -12.2094 -2.63511 7.69797
lowerneck -7.82611 3.21046 -3.3498
upperneck 38.0102 1.80853 1.86643
head 14.2528 -1.36503 1.12832
rclavicle 8.74653e-015 -2.22639e-014
rhumerus -646.123 -25.0807 359.667
rradius 22.698
rwrist 394.821
rhand -18.8844 3.93115
rfingers 7.12502
rthumb 7.41669 -25.9188
lclavicle 8.74653e-015 -2.22639e-014
lhumerus -805.445 -16.3693 103.181
lradius 35.438
lwrist -667.479
lhand -12.578 -8.57991
lfingers 7.12502
lthumb 13.4999 20.9625
rfemur 48.4438 9.14779 25.2009
rtibia 7.31304
rfoot 9.68527 -5.44927
rtoes 12.7716
lfemur 30.7714 2.93475 -31.2072
ltibia 40.1551
lfoot 22.434 -1.36734
ltoes 21.0268
773
root 0.163672 13.7254 9.37883 55.9323 -6.41101 185.743
lowerback 46.4549 2.13169 -6.60766
upperback 7.961 -3.19152 2.49221
thorax -12.0361 -2.72775 7.93721
lowerneck -7.70494 3.10685 -3.61432
upperneck 38.1284 1.4066 2.49415
head 14.2815 -1.5318 1.36971
rclavicle 1.74931e-014 4.52235e-014
rhumerus -645.068 -25.7954 358.778
rradius 22.2485
rwrist 397.559
rhand -19.2751 4.82744
rfingers 7.12502
rthumb 7.03956 -25.0355
lclavicle 1.74931e-014 4.52235e-014
lhumerus -804.92 -15.9291 103.894
lradius 34.3094
lwrist -667.193
lhand -12.4271 -7.83146
lfingers 7.12502
lthumb 13.6454 21.7013
rfemur 49.2903 8.93593 25.3722
rtibia 7.10865
rfoot 11.2233 -4.26839
rtoes 10.667
lfemur 29.3515 3.14582 -31.3552
ltibia 40.111
lfoot 21.4193 -0.306981
ltoes 21.5673
774
root 0.200357 13.7224 9.38442 55.9207 -6.21886 185.627
lowerback 46.393 2.15415 -7.00433
upperback 8.03867 -3.39191 2.42132
thorax -11.8824 -2.8343 8.14655
lowerneck -7.54281 2.99969 -3.88014
upperneck 38.1952 1.02705 3.0335
head 14.2819 -1.7001 1.57854
rclavicle 3.26007e-014 2.24627e-014
rhumerus -644.128 -26.439 358.054
rradius 21.8764
rwrist 399.752
rhand -19.5814 5.74842
rfingers 7.12502
rthumb 6.74396 -24.1242
lclavicle 3.26007e-014 2.24627e-014
lhumerus -804.323 -15.5042 104.415
lradius 33.176
lwrist -666.867
lhand -11.975 -6.75431
lfingers 7.12502
lthumb 14.0811 22.7486
rfemur 50.5382 8.69927 25.5621
rtibia 6.59621
rfoot 12.8968 -3.74279
rtoes 9.31053
lfemur 28.2063 3.2796 -31.5187
ltibia 39.9022
lfoot 20.4267 1.01286
ltoes 21.661
775
root 0.236577 13.7245 9.3951 55.8703 -5.99139 185.489
lowerback 46.3495 2.14978 -7.32143
upperback 8.11566 -3.59096 2.33651
thorax -11.7373 -2.94304 8.29875
lowerneck -7.36495 2.88892 -4.15444
upperneck 38.2501 0.656284 3.52139
head 14.2776 -1.87543 1.76896
rclavicle -1.19271e-014 -1.94809e-014
rhumerus -643.315 -27.0203 357.488
rradius 21.5763
rwrist 401.412
rhand -19.8585 6.67738
rfingers 7.12502
rthumb 6.47639 -23.2036
lclavicle -1.19271e-014 -1.94809e-014
lhumerus -803.666 -15.0965 104.729
lradius 32.0181
lwrist -666.578
lhand -11.2816 -5.39108
lfingers 7.12502
lthumb 14.7492 24.0642
rfemur 51.9988 8.47103 25.7791
rtibia 5.87462
rfoot 14.9308 -3.56543
rtoes 8.93682
lfemur 27.2437 3.33872 -31.6507
ltibia 39.5243
lfoot 19.5236 2.70745
ltoes 21.2503
776
root 0.271708 13.7303 9.41326 55.9051 -5.73373 185.297
lowerback 46.2064 2.10094 -7.54311
upperback 8.17028 -3.77678 2.22504
thorax -11.5988 -3.03809 8.3631
lowerneck -7.17948 2.77748 -4.4402
upperneck 38.3194 0.280956 3.99958
head 14.2827 -2.06152 1.95666
rclavicle -3.18055e-014 5.70512e-014
rhumerus -642.601 -27.5446 357.017
rradius 21.315
rwrist 402.677
rhand -20.1758 7.58673
rfingers 7.12502
rthumb 6.17006 -22.3034
lclavicle -3.18055e-014 5.70512e-014
lhumerus -802.967 -14.7089 104.823
lradius 30.8038
lwrist -666.406
lhand -10.4971 -3.79751
lfingers 7.12502
lthumb 15.5049 25.6008
rfemur 53.3965 8.30968 26.008
rtibia 5.16085
rfoot 17.391 -3.38215
rtoes 9.58321
lfemur 26.3415 3.34936 -31.7251
ltibia 38.9756
lfoot 18.6541 4.75847
ltoes 20.6265
777
root 0.306108 13.7383 9.44031 56.1295 -5.45706 185.059
lowerback 45.8769 1.99658 -7.69092
upperback 8.1794 -3.95021 2.0896
thorax -11.4692 -3.10977 8.35218
lowerneck -6.99284 -1.98374 -4.16971
upperneck 38.6489 1.05439 1.67332
head 14.4768 2.24827 2.14843
rclavicle -4.29375e-014 8.15017e-015
rhumerus -641.951 -28.0186 356.607
rradius 21.0571
rwrist 403.721
rhand -20.6032 8.46744
rfingers 7.12502
rthumb 5.7575 -21.4343
lclavicle -4.29375e-014 8.15017e-015
lhumerus -802.248 -14.3323 104.713
lradius 29.511
lwrist -666.419
lhand -9.74308 -2.14714
lfingers 7.12502
lthumb 16.231 27.1934
rfemur 54.379 8.24556 26.2086
rtibia 4.83918
rfoot 20.1928 -2.91705
rtoes 10.7706
lfemur 25.378 3.30963 -31.7398
ltibia 38.2538
lfoot 17.7002 6.92177
ltoes 20.2462
778
root 0.339476 13.7475 9.47608 56.5638 -5.18006 184.79
lowerback 45.3421 1.83736 -7.77528
upperback 8.14649 -4.1136 1.9231
thorax -11.3373 -3.15912 8.26342
lowerneck -6.85561 -2.17699 -4.45848
upperneck 38.8671 0.695852 2.09459
head 14.5625 2.1253 2.33863
rclavicle 3.18055e-015 2.14687e-014
rhumerus -641.314 -28.4828 356.17
rradius 20.7779
rwrist 404.773
rhand -21.1107 9.32765
rfingers 7.12502
rthumb 5.2675 -20.5869
lclavicle 3.18055e-015 2.14687e-014
lhumerus -801.491 -13.9704 104.372
lradius 28.1091
lwrist -666.715
lhand -9.13866 -0.541643
lfingers 7.12502
lthumb 16.813 28.7505
rfemur 54.7241 8.29258 26.3466
rtibia 5.24046
rfoot 23.2114 -1.99006
rtoes 12.0471
lfemur 24.3193 3.21976 -31.7167
ltibia 37.3513
lfoot 16.6691 8.8494
ltoes 20.4834
779
root 0.371473 13.7578 9.51845 57.1536 -4.93276 184.509
lowerback 44.6564 1.64369 -7.82863
upperback 8.078 -4.26994 1.72756
thorax -11.2056 -3.19118 8.11854
lowerneck -6.80965 -2.37632 -4.72138
upperneck 39.187 0.340556 2.50621
head 14.7235 2.01381 2.53097
rclavicle 5.40694e-014 -4.90998e-014
rhumerus -640.675 -28.948 355.708
rradius 20.4566
rwrist 406.001
rhand -21.7971 9.89591
rfingers 7.12502
rthumb 4.60466 -20.034
lclavicle 5.40694e-014 -4.90998e-014
lhumerus -800.68 -13.59 103.747
lradius 26.5864
lwrist -667.392
lhand -8.50772 0.859983
lfingers 7.12502
lthumb 17.4203 30.0994
rfemur 54.5101 8.45897 26.3814
rtibia 6.28669
rfoot 26.2945 -0.808113
rtoes 12.3914
lfemur 23.2107 3.07271 -31.7145
ltibia 36.2671
lfoot 15.6112 10.2325
ltoes 21.2849
780
root 0.40234 13.7687 9.56338 57.7971 -4.712 184.259
lowerback 43.9357 1.42447 -7.8579
upperback 7.97769 -4.43511 1.50773
thorax -11.0976 -3.21846 7.93782
lowerneck -6.84348 -2.57861 -4.94401
upperneck 39.6079 -0.00849006 2.90505
head 14.9584 1.91845 2.72291
rclavicle 5.40694e-014 -1.39149e-015
rhumerus -640.02 -29.4198 355.171
rradius 20.1179
rwrist 407.487
rhand -22.5172 10.3269
rfingers 7.12502
rthumb 3.90932 -19.617
lclavicle 5.40694e-014 -1.39149e-015
lhumerus -799.811 -13.1568 102.774
lradius 24.9421
lwrist -668.519
lhand -7.78914 1.93921
lfingers 7.12502
lthumb 18.1117 31.116
rfemur 53.977 8.68817 26.3061
rtibia 7.69862
rfoot 29.3821 0.25497
rtoes 11.7957
lfemur 22.1541 2.83563 -31.7565
ltibia 35.0086
lfoot 14.7031 10.9667
ltoes 22.2953
781
root 0.432319 13.78 9.60751 58.4113 -4.51175 184.05
lowerback 43.2639 1.19507 -7.86968
upperback 7.8624 -4.61261 1.27505
thorax -11.0172 -3.25005 7.74138
lowerneck -6.92886 -2.77453 -5.1144
upperneck 40.0626 -0.348801 3.28031
head 15.2286 1.83473 2.90309
rclavicle -3.81667e-014 9.34288e-015
rhumerus -639.343 -29.9126 354.526
rradius 19.8056
rwrist 409.208
rhand -23.1858 10.6423
rfingers 7.12502
rthumb 3.26366 -19.3125
lclavicle -3.81667e-014 9.34288e-015
lhumerus -798.839 -12.6198 101.348
lradius 23.1727
lwrist -670.195
lhand -6.92478 2.70388
lfingers 7.12502
lthumb 18.9432 31.8014
rfemur 53.3078 8.94314 26.14
rtibia 9.30027
rfoot 32.4033 0.948862
rtoes 10.7797
lfemur 21.2428 2.49605 -31.8516
ltibia 33.6018
lfoot 14.1004 11.178
ltoes 23.4735
782
root 0.461716 13.7913 9.64946 58.9522 -4.31706 183.876
lowerback 42.6861 0.967543 -7.86558
upperback 7.74959 -4.7993 1.0456
thorax -10.9587 -3.29071 7.54753
lowerneck -7.01493 -2.95127 -5.22952
upperneck 40.4383 -0.67893 3.623
head 15.464 1.75146 3.05675
rclavicle 1.03368e-013 -5.08889e-014
rhumerus -638.665 -30.4391 353.801
rradius 19.5478
rwrist 411.082
rhand -23.7337 10.7942
rfingers 7.12502
rthumb 2.73457 -19.1681
lclavicle 1.03368e-013 -5.08889e-014
lhumerus -797.712 -11.9205 99.3618
lradius 21.2765
lwrist -672.514
lhand -5.90506 3.23031
lfingers 7.12502
lthumb 19.9236 32.229
rfemur 52.5836 9.20217 25.9168
rtibia 11.0355
rfoot 35.161 1.20945
rtoes 10.1656
lfemur 20.5248 2.05695 -31.9861
ltibia 32.0888
lfoot 13.7138 11.1384
ltoes 23.9736
